<svg xmlns="http://www.w3.org/2000/svg" width="876" height="876" viewBox="0 0 876 876"><path d="M858 438a420 420 0 1 0-840 0 420 420 0 1 0 840 0M475 870.9c83.69-6.01 164.52-35.61 230.41-84.36 42.89-31.74 81.72-74.42 109.41-120.27 37.9-62.77 58.12-133.76 59.88-210.27 2.14-93.07-23.84-179.98-77.43-259-13.77-20.31-28.84-38.57-47.75-57.89-25.54-26.08-45.42-42.65-74.52-62.08C616.18 37.76 547.42 13.5 476.5 7c-15.33-1.41-60.78-1.41-75.61 0C278.91 18.55 168.1 80.12 92.69 178.24 31.19 258.27-1.59 358.3 1.34 457c2.98 100.24 37 190.02 100.22 264.5 26.24 30.91 63.51 62.88 99.81 85.63 14.59 9.14 48.68 26.18 65.65 32.82 66.92 26.18 134.45 36.23 207.98 30.95m-55.5-15.56c-47.13-2.77-84.25-9.54-122.5-22.32-28.81-9.63-61.35-24.6-84.25-38.74l-8.75-5.4.58-4.19c1.44-10.37 4.68-27.84 6.44-34.75 8.73-34.28 25.56-68.95 45.38-93.44 6.75-8.35 20.79-23.5 21.77-23.5.51 0 4.16 2.17 8.13 4.83 28.12 18.84 64.03 33.89 98.17 41.15 5.48 1.17 10.06 2.21 10.17 2.33.11.11-2.33 2.22-5.43 4.7-26.08 20.81-35.2 60.49-21.1 91.84 8.49 18.87 26.98 35.58 46.08 41.64 9.53 3.02 23.36 4.81 30.74 3.98 21.12-2.38 40.21-12.73 52.72-28.58 7.04-8.92 9.75-13.95 13.42-24.89 6.97-20.81 4.26-45.23-7.19-64.73-1.86-3.17-7.49-9.91-12.52-14.99l-9.13-9.23 3.63-.65c33.07-5.85 71.48-21.37 101.42-40.98 5.38-3.53 10.13-6.42 10.54-6.42 1.05 0 10.58 9.95 19.16 20 21.62 25.32 41.71 66.58 49.41 101.5 3.14 14.29 5.93 32.21 5.27 33.93-.75 1.97-19.86 13.21-37.16 21.86-43.48 21.74-91.78 36.14-141.5 42.17-22.72 2.75-54.55 4-73.5 2.88m-25.18-93.95c-3.66-1.81-4.85-4.04-3.21-6.02 1.48-1.79 3.34-1.74 4.89.13 1.42 1.71 7.55 2.03 8.54.44 1.56-2.54-.61-5.63-5.61-7.97-6.01-2.82-7.93-5.18-7.93-9.74 0-6.01 7.12-10.16 14.8-8.62 3.67.73 5.67 2.73 4.85 4.87-.46 1.2-1.75 1.37-6.46.88-5.03-.52-5.98-.36-6.55 1.14-.89 2.33.91 4.34 5.56 6.2 4.57 1.82 8.8 6.55 8.8 9.83 0 8.49-9.14 13.07-17.68 8.86m21.99.41c-.62-.81-.83-7.04-.54-16.43l.47-15.14 3.88-.52c12.83-1.72 20.05 4.18 16.88 13.78-1.53 4.66-4.44 6.51-10.22 6.51H422v6c0 3.3-.41 6-.92 6-.5 0-1.56.25-2.34.55s-1.87-.04-2.43-.75m12.12-16.78c2.05-.77 2.57-1.65 2.57-4.3 0-4.19-1.52-5.72-5.7-5.72-3.29 0-3.3.02-3.3 4.92 0 5.88 1.43 7.01 6.43 5.1m14.32 17.29c-1.57-.41-1.75-2.06-1.75-16.36 0-18.33-.57-17.43 10.5-16.58 3.3.26 6.82.5 7.82.55 1.3.06 1.73.73 1.5 2.33-.29 2.04-.94 2.28-7.07 2.55l-6.75.29v4.53c0 4.48.04 4.53 3.25 4.36 5.24-.29 5.91-.08 5.56 1.77-.23 1.21-1.56 1.9-4.32 2.25-3.89.49-4 .61-4.3 4.75l-.3 4.25h7.05c6.78 0 7.06.1 7.06 2.39 0 1.32-.71 2.67-1.58 3-1.78.69-13.98.62-16.67-.08m26.58-.72c-4.55-2.05-5.33-4.27-5.33-15.09 0-13.56 1.85-16.41 10.69-16.47 6.28-.04 10.26 2.77 10.6 7.47.18 2.57-.17 3.04-2.46 3.31-2.09.24-2.95-.3-4.01-2.5-1.63-3.41-5.61-4.32-7.51-1.71-1.75 2.38-1.76 16.41-.01 18.79 1.98 2.71 6.96 1.81 7.7-1.39.41-1.75 1.35-2.59 3.16-2.8 3.01-.36 4.21 1.71 2.93 5.06-2.13 5.57-9.63 8.1-15.76 5.33m-49.19-141.63c-48.64-4.69-90.73-22.13-126.64-52.46-34.65-29.26-58.08-68.24-67.63-112.5-1.96-9.09-2.27-13.52-2.31-33-.06-24.18.84-31.69 5.93-49.5 9.23-32.27 25.18-59.74 48.99-84.35 29.34-30.32 65.81-51.21 106.62-61.05 19.76-4.76 27.33-5.55 53.4-5.55 21.73.01 26.7.31 37.99 2.32 70.24 12.54 129.28 56.27 158.55 117.47 12.6 26.35 18.32 51.69 18.2 80.66-.21 48.31-18.26 91.9-53.75 129.76-28.96 30.91-68.35 53.55-109.02 62.66-23.77 5.33-50.65 7.45-70.33 5.54m4.52-135.49c3.08-1.51 7.12-4.66 9.47-7.4l4.11-4.76 4.07 4.41c13.29 14.41 35.35 14.84 47.27.92 3.87-4.53 6.89-12.64 6-16.16-1.51-6.02-9.21-4.94-10.86 1.52-2.48 9.75-12.75 15.69-22.55 13.05-9.02-2.43-15.97-10.86-17.48-21.18-.5-3.46-.23-3.87 5.88-8.93 7.65-6.33 11.57-11.66 11.78-16.05.12-2.69-.42-3.56-3.35-5.31-3.17-1.88-5.06-2.08-20-2.08-14.5 0-16.98.24-20.5 2-6.5 3.25-6.08 7.51 1.56 15.87 2.78 3.05 6.61 6.5 8.5 7.67 2.93 1.81 3.43 2.67 3.4 5.79-.15 12.52-10.02 22.61-22.05 22.53-9.74-.07-14.77-4.06-19.41-15.41-1.31-3.21-7.09-3.49-9.03-.45-1.75 2.75.27 10.25 4.25 15.74 3.07 4.24 10.97 9.41 16.61 10.86 5.75 1.49 16.51.21 22.33-2.63m-66.89-68.02c7.39-3.09 12.17-10.18 12.21-18.13.03-5.51-1.41-9.08-5.29-13.19-8.63-9.11-22.84-7.85-30.16 2.68-7.13 10.26-1.55 25.54 10.6 29.04 5 1.44 8.5 1.33 12.64-.4m175 0c4.94-2.06 8.11-5.11 10.34-9.95 3.48-7.55 1.55-16.82-4.73-22.69-10.24-9.55-27.75-4.29-31.45 9.45-4.12 15.29 11.41 29.22 25.84 23.19M249.23 236.08l.27-58.92 2.38-2.53c2.77-2.95 7.21-4.19 9.89-2.75 2.15 1.15 6.79 5.01 42.09 35.05 13.85 11.79 25.04 21.88 24.86 22.42s-3.69 2.79-7.79 5l-7.47 4.01-15.33-12.93C277.94 208.4 276.06 207 273.32 207c-1.28 0-3.22.9-4.32 2-1.92 1.92-2 3.33-2 34.12v32.12l-8.6 9.88c-4.74 5.43-8.8 9.88-9.03 9.88s-.29-26.51-.14-58.92m368.52 48.76L609 274.79v-32.24c0-45.86 2.63-45.12-38.28-10.75-3.73 3.14-7.17 5.84-7.66 6-.98.34-16.06-7.87-16.06-8.74 0-.31 6.19-5.79 13.75-12.19 7.56-6.39 22.53-19.1 33.25-28.25 19.96-17.02 23.41-19.08 27.88-16.68 5.18 2.77 5.16 2.51 4.88 64.97l-.26 57.97z" fill="#fefefe"/><path d="M189.91 769.27c-.66 4.41-1.64 7.72-2.28 7.72-2.52-.04-28.04-20.58-44.22-35.59-18.5-17.17-45.79-49.65-59.57-70.9-19.4-29.93-32.48-56.97-44.5-92-25.32-73.78-28.35-159.37-8.4-236.74 16.53-64.1 48.45-124.39 92.51-174.75 47.96-54.82 107.82-96.03 175.05-120.53 7.15-2.6 15.02-5.31 17.5-6.01s8.55-2.47 13.5-3.94c11.85-3.52 38.97-9.03 54-10.96 89.07-11.49 175.12 4.81 253.92 48.12 6.64 3.65 13.2 7.38 14.58 8.29 1.38.92 7.22 4.76 13 8.55 50.35 33.05 94.32 77.56 126.42 127.97 34.69 54.49 56.03 113.6 64.15 177.74 2.47 19.44 3.02 68.49 1 88.76-9.35 93.97-46.2 175.28-110.07 242.9-17.95 19-56.1 50.83-58.3 48.64-.36-.36-2.06-7.76-3.77-16.44-6.07-30.74-17.49-60.71-33.75-88.6-6.88-11.81-19.39-27.87-34.98-44.91l-6.8-7.43-1.21-52.09 6.49-6.88c25.24-26.75 44.74-64.07 51.77-99.07 6.3-31.37 5.09-63.97-3.53-94.42-3.21-11.35-10.66-30.52-14.88-38.27l-3.3-6.06-.96-146.87-2.26-5.24c-2.48-5.75-8.29-11.64-13.74-13.92-5.4-2.25-14.27-2.01-19.55.55-3.63 1.76-31.82 25.03-71.9 59.36-3.05 2.61-6.11 4.75-6.8 4.75s-7.19-2.01-14.46-4.46c-24.86-8.39-47.95-11.99-76.57-11.94-29.38.05-50.24 3.31-76.49 11.95-7.44 2.45-13.91 4.45-14.38 4.45-.92 0-21.49-17.1-52.92-44-23.28-19.92-26.46-21.92-35.26-22.1-3.77-.08-7.93.48-10.02 1.35-5.45 2.29-10.99 7.69-13.58 13.24l-2.33 5.01-.02 145.27-5.97 12.36c-7.51 15.59-12.28 28.78-15.59 43.13-6.83 29.57-7.25 56.5-1.37 85.85 6.71 33.47 25.75 70.39 50.33 97.57l7.77 8.59-.58 26.5-.59 26.49-7.93 8.12c-22.33 22.87-41.05 52.22-53.35 83.62-7.04 18.01-13.39 41-15.81 57.27m272.88-102.32c-11.75 1.27-15.51 1.32-16.19.21-.67-1.08-.27-28.82.42-29.51.28-.28 6.36-1.04 13.5-1.67 45.58-4.05 87.01-20.26 124.57-48.74 3.08-2.33 5.89-4.24 6.25-4.24s.65 7.54.63 16.75l-.03 16.75-6.22 4.17c-39.6 26.52-79.66 41.61-122.93 46.28M429 652.5V668l-4.25-.13c-21.63-.68-53.81-7.83-78.3-17.41-17.79-6.96-40.36-18.97-55.62-29.61l-6.33-4.42-.27-16.71c-.17-9.87.1-16.72.65-16.72.52 0 3.38 1.99 6.38 4.43 21.85 17.8 55.11 33.94 86.74 42.08 13.93 3.59 38.78 7.4 48.75 7.47 2.24.02 2.25.12 2.25 15.52" fill="#288ee8"/><path d="M475 870.9c-73.53 5.28-141.06-4.77-207.98-30.95-16.97-6.64-51.06-23.68-65.65-32.82-36.3-22.75-73.57-54.72-99.81-85.63C38.34 647.02 4.32 557.24 1.34 457c-2.93-98.7 29.85-198.73 91.35-278.76C168.1 80.12 278.91 18.55 400.89 7c14.83-1.41 60.28-1.41 75.61 0 70.92 6.5 139.68 30.76 198.5 70.03 29.1 19.43 48.98 36 74.52 62.08 18.91 19.32 33.98 37.58 47.75 57.89 53.59 79.02 79.57 165.93 77.43 259-1.76 76.51-21.98 147.5-59.88 210.27-27.69 45.85-66.52 88.53-109.41 120.27-65.89 48.75-146.72 78.35-230.41 84.36M189.91 769.27c2.42-16.27 8.77-39.26 15.81-57.27 12.3-31.4 31.02-60.75 53.35-83.62l7.93-8.12.59-26.49.58-26.5-7.77-8.59c-24.58-27.18-43.62-64.1-50.33-97.57-5.88-29.35-5.46-56.28 1.37-85.85 3.31-14.35 8.08-27.54 15.59-43.13l5.97-12.36.02-145.27 2.33-5.01c2.59-5.55 8.13-10.95 13.58-13.24 2.09-.87 6.25-1.43 10.02-1.35 8.8.18 11.98 2.18 35.26 22.1 31.43 26.9 52 44 52.92 44 .47 0 6.94-2 14.38-4.45 26.25-8.64 47.11-11.9 76.49-11.95 28.62-.05 51.71 3.55 76.57 11.94 7.27 2.45 13.77 4.46 14.46 4.46s3.75-2.14 6.8-4.75c40.08-34.33 68.27-57.6 71.9-59.36 5.28-2.56 14.15-2.8 19.55-.55 5.45 2.28 11.26 8.17 13.74 13.92l2.26 5.24.96 146.87 3.3 6.06c4.22 7.75 11.67 26.92 14.88 38.27 8.62 30.45 9.83 63.05 3.53 94.42-7.03 35-26.53 72.32-51.77 99.07l-6.49 6.88 1.21 52.09 6.8 7.43c15.59 17.04 28.1 33.1 34.98 44.91 16.26 27.89 27.68 57.86 33.75 88.6 1.71 8.68 3.41 16.08 3.77 16.44 2.2 2.19 40.35-29.64 58.3-48.64 63.87-67.62 100.72-148.93 110.07-242.9 2.02-20.27 1.47-69.32-1-88.76-8.12-64.14-29.46-123.25-64.15-177.74-32.1-50.41-76.07-94.92-126.42-127.97-5.78-3.79-11.62-7.63-13-8.55-1.38-.91-7.94-4.64-14.58-8.29-78.8-43.31-164.85-59.61-253.92-48.12-15.03 1.93-42.15 7.44-54 10.96-4.95 1.47-11.02 3.24-13.5 3.94s-10.35 3.41-17.5 6.01c-67.23 24.5-127.09 65.71-175.05 120.53-44.06 50.36-75.98 110.65-92.51 174.75-19.95 77.37-16.92 162.96 8.4 236.74 12.02 35.03 25.1 62.07 44.5 92 13.78 21.25 41.07 53.73 59.57 70.9 16.18 15.01 41.7 35.55 44.22 35.59.64 0 1.62-3.31 2.28-7.72m230.23-149.31c19.68 1.91 46.56-.21 70.33-5.54 40.67-9.11 80.06-31.75 109.02-62.66 35.49-37.86 53.54-81.45 53.75-129.76.12-28.97-5.6-54.31-18.2-80.66-29.27-61.2-88.31-104.93-158.55-117.47-11.29-2.01-16.26-2.31-37.99-2.32-26.07 0-33.64.79-53.4 5.55-40.81 9.84-77.28 30.73-106.62 61.05-23.81 24.61-39.76 52.08-48.99 84.35-5.09 17.81-5.99 25.32-5.93 49.5.04 19.48.35 23.91 2.31 33 9.55 44.26 32.98 83.24 67.63 112.5 35.91 30.33 78 47.77 126.64 52.46m-.64 235.38c18.95 1.12 50.78-.13 73.5-2.88 49.72-6.03 98.02-20.43 141.5-42.17 17.3-8.65 36.41-19.89 37.16-21.86.66-1.72-2.13-19.64-5.27-33.93-7.7-34.92-27.79-76.18-49.41-101.5-8.58-10.05-18.11-20-19.16-20-.41 0-5.16 2.89-10.54 6.42-29.94 19.61-68.35 35.13-101.42 40.98l-3.63.65 9.13 9.23c5.03 5.08 10.66 11.82 12.52 14.99 11.45 19.5 14.16 43.92 7.19 64.73-3.67 10.94-6.38 15.97-13.42 24.89-12.51 15.85-31.6 26.2-52.72 28.58-7.38.83-21.21-.96-30.74-3.98-19.1-6.06-37.59-22.77-46.08-41.64-14.1-31.35-4.98-71.03 21.1-91.84 3.1-2.48 5.54-4.59 5.43-4.7-.11-.12-4.69-1.16-10.17-2.33-34.14-7.26-70.05-22.31-98.17-41.15-3.97-2.66-7.62-4.83-8.13-4.83-.98 0-15.02 15.15-21.77 23.5-19.82 24.49-36.65 59.16-45.38 93.44-1.76 6.91-5 24.38-6.44 34.75l-.58 4.19 8.75 5.4c22.9 14.14 55.44 29.11 84.25 38.74 38.25 12.78 75.37 19.55 122.5 22.32m4.17-50.23c5.29 1.47 9.08 1.81 16.83 1.5 16.41-.67 29.54-6.65 40.85-18.62 11.16-11.8 16.62-25.59 16.62-41.99 0-10.55-1.93-18.99-6.36-27.79-8.08-16.05-22.89-27.92-40.11-32.15-6.27-1.54-20.65-1.54-27.11.01-16.54 3.96-32.63 17.18-40.2 33.04-4.73 9.9-6.19 16.21-6.18 26.69.02 17.05 6.18 31.64 18.5 43.82 7.9 7.8 15.81 12.31 27.16 15.49m39.12-138.16c43.27-4.67 83.33-19.76 122.93-46.28l6.22-4.17.03-16.75c.02-9.21-.27-16.75-.63-16.75s-3.17 1.91-6.25 4.24c-37.56 28.48-78.99 44.69-124.57 48.74-7.14.63-13.22 1.39-13.5 1.67-.69.69-1.09 28.43-.42 29.51.68 1.11 4.44 1.06 16.19-.21M429 652.5c0-15.4-.01-15.5-2.25-15.52-9.97-.07-34.82-3.88-48.75-7.47-31.63-8.14-64.89-24.28-86.74-42.08-3-2.44-5.86-4.43-6.38-4.43-.55 0-.82 6.85-.65 16.72l.27 16.71 6.33 4.42c15.26 10.64 37.83 22.65 55.62 29.61 24.49 9.58 56.67 16.73 78.3 17.41l4.25.13ZM249.23 236.08c-.15 32.41-.09 58.92.14 58.92s4.29-4.45 9.03-9.88l8.6-9.88v-32.12c0-30.79.08-32.2 2-34.12 1.1-1.1 3.04-2 4.32-2 2.74 0 4.62 1.4 24.81 18.43l15.33 12.93 7.47-4.01c4.1-2.21 7.61-4.46 7.79-5s-11.01-10.63-24.86-22.42c-35.3-30.04-39.94-33.9-42.09-35.05-2.68-1.44-7.12-.2-9.89 2.75l-2.38 2.53Zm368.52 48.76 8.75 10.04.26-57.97v-.74c.24-53.53.27-60.45-3.09-63.14-.51-.41-1.1-.73-1.79-1.09-4.47-2.4-7.92-.34-27.88 16.68-10.72 9.15-25.69 21.86-33.25 28.25-7.56 6.4-13.75 11.88-13.75 12.19 0 .87 15.08 9.08 16.06 8.74.49-.16 3.93-2.86 7.66-6 2.48-2.08 4.8-4.04 6.96-5.87 16.39-13.85 24.24-20.48 27.99-18.66 3.44 1.67 3.41 10.5 3.35 27.45-.01 2.44-.02 5.05-.02 7.83v32.24ZM424.66 484.47c-5.82 2.84-16.58 4.12-22.33 2.63-5.64-1.45-13.54-6.62-16.61-10.86-3.98-5.49-6-12.99-4.25-15.74 1.94-3.04 7.72-2.76 9.03.45 4.64 11.35 9.67 15.34 19.41 15.41 12.03.08 21.9-10.01 22.05-22.53.03-3.12-.47-3.98-3.4-5.79-1.89-1.17-5.72-4.62-8.5-7.67-7.64-8.36-8.06-12.62-1.56-15.87 3.52-1.76 6-2 20.5-2 14.94 0 16.83.2 20 2.08 2.93 1.75 3.47 2.62 3.35 5.31-.21 4.39-4.13 9.72-11.78 16.05-6.11 5.06-6.38 5.47-5.88 8.93 1.51 10.32 8.46 18.75 17.48 21.18 9.8 2.64 20.07-3.3 22.55-13.05 1.65-6.46 9.35-7.54 10.86-1.52.89 3.52-2.13 11.63-6 16.16-11.92 13.92-33.98 13.49-47.27-.92l-4.07-4.41-4.11 4.76c-2.35 2.74-6.39 5.89-9.47 7.4m108.11-68.02c-14.43 6.03-29.96-7.9-25.84-23.19 3.7-13.74 21.21-19 31.45-9.45 6.28 5.87 8.21 15.14 4.73 22.69-2.23 4.84-5.4 7.89-10.34 9.95m-175 0c-4.14 1.73-7.64 1.84-12.64.4-12.15-3.5-17.73-18.78-10.6-29.04 7.32-10.53 21.53-11.79 30.16-2.68 3.88 4.11 5.32 7.68 5.29 13.19-.04 7.95-4.82 15.04-12.21 18.13" fill="#2c3b46"/><path d="M423.67 805.11c-11.35-3.18-19.26-7.69-27.16-15.49-12.32-12.18-18.48-26.77-18.5-43.82-.01-10.48 1.45-16.79 6.18-26.69 7.57-15.86 23.66-29.08 40.2-33.04 6.46-1.55 20.84-1.55 27.11-.01 17.22 4.23 32.03 16.1 40.11 32.15 4.43 8.8 6.36 17.24 6.36 27.79 0 16.4-5.46 30.19-16.62 41.99-11.31 11.97-24.44 17.95-40.85 18.62-7.75.31-11.54-.03-16.83-1.5m-7.36-43.31c.56.71 1.65 1.05 2.43.75s1.84-.55 2.34-.55c.51 0 .92-2.7.92-6v-6h4.78c5.78 0 8.69-1.85 10.22-6.51 3.17-9.6-4.05-15.5-16.88-13.78l-3.88.52-.47 15.14c-.29 9.39-.08 15.62.54 16.43m-21.99-.41c8.54 4.21 17.68-.37 17.68-8.86 0-3.28-4.23-8.01-8.8-9.83-4.65-1.86-6.45-3.87-5.56-6.2.57-1.5 1.52-1.66 6.55-1.14 4.71.49 6 .32 6.46-.88.82-2.14-1.18-4.14-4.85-4.87-7.68-1.54-14.8 2.61-14.8 8.62 0 4.56 1.92 6.92 7.93 9.74 5 2.34 7.17 5.43 5.61 7.97-.99 1.59-7.12 1.27-8.54-.44-1.55-1.87-3.41-1.92-4.89-.13-1.64 1.98-.45 4.21 3.21 6.02m48.43.92c2.69.7 14.89.77 16.67.08.87-.33 1.58-1.68 1.58-3 0-2.29-.28-2.39-7.06-2.39h-7.05l.3-4.25c.3-4.14.41-4.26 4.3-4.75 2.76-.35 4.09-1.04 4.32-2.25.35-1.85-.32-2.06-5.56-1.77-3.21.17-3.25.12-3.25-4.36v-4.53l6.75-.29c6.13-.27 6.78-.51 7.07-2.55.23-1.6-.2-2.27-1.5-2.33-1-.05-4.52-.29-7.82-.55-.55-.04-1.06-.08-1.55-.12-3.77-.31-5.95-.49-7.22.51-1.75 1.37-1.75 4.99-1.73 13.62v2.57c0 14.3.18 15.95 1.75 16.36m26.58-.72c6.13 2.77 13.63.24 15.76-5.33 1.28-3.35.08-5.42-2.93-5.06-1.81.21-2.75 1.05-3.16 2.8-.74 3.2-5.72 4.1-7.7 1.39-1.75-2.38-1.74-16.41.01-18.79 1.9-2.61 5.88-1.7 7.51 1.71 1.06 2.2 1.92 2.74 4.01 2.5 2.29-.27 2.64-.74 2.46-3.31-.34-4.7-4.32-7.51-10.6-7.47-8.84.06-10.69 2.91-10.69 16.47 0 10.82.78 13.04 5.33 15.09m-40.9-16.57c-5 1.91-6.43.78-6.43-5.1 0-4.9.01-4.92 3.3-4.92 4.18 0 5.7 1.53 5.7 5.72 0 2.65-.52 3.53-2.57 4.3" fill="#e27744"/></svg>